<svg width="40" height="40" viewBox="0 0 40 40" fill="none" xmlns="http://www.w3.org/2000/svg">
<path fill-rule="evenodd" clip-rule="evenodd" d="M0.409453 13.6197L35.3024 13.8621C35.8558 13.6623 36.2246 13.6205 37.416 13.6189C40.4017 13.6163 39.6019 12.1876 36.2939 11.6145C36.0476 11.5719 35.7757 11.4977 35.6895 11.4494C35.6034 11.4012 35.264 11.3133 34.9353 11.2543C34.2281 11.1275 33.1686 10.8592 32.5055 10.6387C32.2442 10.5518 31.9907 10.4804 31.9422 10.4804C31.7147 10.48 30.202 9.75177 29.6629 9.38295C28.7814 8.77992 28.0177 7.61786 27.5039 6.09788C27.2709 5.40839 26.6007 4.10849 26.0446 3.26757C25.7625 2.84087 25.5318 2.43963 25.5319 2.37554C25.5321 2.31136 25.4209 2.14675 25.4025 2.09388C25.2668 1.70341 23.8875 0.219051 23.6006 0.0986349C23.2886 -0.0323569 23.3606 -0.0311006 22.9059 0.0918285C22.6928 0.149419 22.5372 0.416952 22.5372 0.416952C22.1453 1.01128 21.8287 4.3441 22.3663 5.11255C22.3662 5.14444 22.5238 5.43456 22.5051 5.37669C22.5238 5.43456 23.4972 7.06931 23.8439 7.40347C23.9757 7.5305 24.1853 7.74348 24.3095 7.8764C24.9371 8.54835 26.6178 9.80046 27.6234 10.3455C27.9135 10.5027 28.3124 10.7422 28.5098 10.8775C29.0842 11.2715 31.2927 12.2948 31.7454 12.3769C31.9733 12.4182 32.1269 12.4755 32.0869 12.5041C32.0157 12.5549 30.7098 12.2861 30.1093 12.0971C29.9434 12.0449 29.4682 11.8988 29.0535 11.7724C27.0831 11.1722 26.1573 10.7484 24.2302 9.56427C23.7334 9.25898 23.2397 8.96021 23.133 8.90064C22.2786 8.42333 22.0449 8.16848 22.0461 7.71544C22.0495 6.45782 20.6234 5.51517 18.3666 5.28288C16.9063 5.13258 16.2137 5.45415 16.9946 5.92001C17.1221 6.08208 17.2205 6.11433 17.2203 6.1871C17.2202 6.25987 17.5213 6.56911 17.5213 6.56911C17.596 6.73373 17.8221 6.85458 17.822 6.89828C18.2772 7.21475 19.2195 7.96204 20.0913 8.29391C20.6254 8.49723 21.0961 8.69451 21.1376 8.73237C21.1789 8.77023 21.4846 8.91865 21.8162 9.06211C22.1478 9.20557 22.4867 9.37659 22.5695 9.44202C22.6524 9.50751 23.0437 9.72861 23.4391 9.93378C23.8346 10.1389 24.3923 10.461 24.6785 10.6491C24.9647 10.8372 25.2857 11.0132 25.3916 11.0405C25.4974 11.0677 25.5425 11.122 25.4922 11.161C25.392 11.2387 22.6558 10.5171 22.424 10.3519C22.3453 10.2958 22.1754 10.2482 22.0467 10.246C21.918 10.2438 21.5414 10.1476 21.2098 10.0322C20.878 9.91692 20.4962 9.8207 20.3611 9.81846C20.226 9.81622 20.0308 9.74153 19.9276 9.65223C19.8245 9.56293 19.671 9.48976 19.5859 9.48963C19.3705 9.48931 18.3448 8.87185 17.117 8.00338C15.5499 6.89496 14.1849 6.15637 12.543 5.52746C12.0868 5.35276 11.6795 5.17706 11.6373 5.13717C11.595 5.09727 11.3745 5.03066 11.1471 4.9894C10.9198 4.94821 10.849 4.89413 10.7338 4.82704C10.6187 4.75995 10.5133 4.70483 10.2437 4.66316C9.97399 4.62143 10.0382 4.57929 9.5968 4.49731C9.06983 4.39946 7.85792 4.09666 5.8315 3.80305C4.60312 3.62504 1.09528 3.39856 0.889 3.4839C0.193888 3.77185 2.23467 5.57931 4.42835 6.61885L5.14479 6.95844L4.64966 7.02388C3.17675 7.21938 2.32344 8.35156 3.42139 8.65362C4.16326 8.85773 4.13219 8.85794 9.21597 8.61902C10.4756 8.55977 11.7579 8.55583 12.2344 8.60926C13.8675 8.79237 15.0296 8.95862 15.3262 9.05188C15.492 9.10403 15.8631 9.1803 16.1507 9.22151C16.4385 9.26266 16.778 9.33706 16.9051 9.38684C17.0321 9.43655 17.5305 9.6064 18.0127 9.76414C18.4949 9.92186 18.8652 10.0681 18.8357 10.0892C18.7838 10.1261 17.6422 10.2511 15.5247 10.4517C14.9718 10.5041 14.205 10.6231 13.8208 10.7159C13.4364 10.8086 13.0252 10.8841 12.9063 10.8839C12.7081 10.8836 12.3362 10.9838 11.094 11.3716C10.8448 11.4494 10.3689 11.5936 10.0366 11.692C8.0674 12.2754 7.7047 12.518 8.59128 12.6588C8.99533 12.723 10.2909 12.3786 11.6771 11.8387C13.0949 11.2865 18.7158 10.4794 20.1905 10.6163C20.8435 10.677 22.3892 11.0068 22.3043 11.0673C22.2786 11.0855 21.6474 11.1753 20.9017 11.2668C18.4404 11.5688 17.7356 11.6728 17.5827 11.7564C17.4996 11.8018 17.1261 11.8739 16.7524 11.9165C16.3787 11.9591 16.0048 12.0309 15.9217 12.0762C15.8386 12.1216 15.295 12.1915 14.7138 12.2316C14.1326 12.2717 13.4534 12.3459 13.2042 12.3966C10.9752 12.8503 8.53667 12.946 0.411333 12.8984L0.409453 13.6197ZM12.334 13.3521C12.8632 13.3563 13.2733 13.359 13.5949 13.3567C14.5599 13.3504 14.7294 13.304 14.938 13.1557L15.2406 12.9401L14.6744 12.9447C14.3631 12.9476 13.5652 12.9989 12.9009 13.0586C9.95232 13.3235 9.93618 13.3319 12.334 13.3521ZM16.9 13.2487C16.5451 13.318 19.1473 13.3554 24.8236 13.3633C29.4723 13.3698 33.0378 13.336 32.7474 13.2886C32.457 13.2412 31.7102 13.127 31.0879 13.0344C28.9245 12.7125 28.5021 12.6393 28.3247 12.5576C27.3666 12.1159 24.5757 12.0167 22.4866 12.3499C21.8637 12.4492 20.9125 12.5976 20.3727 12.6795C18.865 12.9084 17.4835 13.1348 16.9 13.2487ZM33.9226 12.0984C34.4293 12.2973 37.3731 12.8631 37.8804 12.8592C38.3241 12.8558 37.0278 12.4557 35.6181 12.1612C34.8299 11.9965 34.1173 11.8258 34.0344 11.7818C33.9516 11.7378 33.6851 11.6671 33.4422 11.6251C32.9667 11.5428 31.067 10.928 30.9429 10.8162C30.8046 10.6915 29.1406 9.93584 29.004 9.93563C28.9299 9.93552 28.7835 9.86134 28.6788 9.77061C28.574 9.67984 28.4471 9.6348 28.3968 9.67076C28.3464 9.70672 28.4309 9.80229 28.5847 9.88318C28.7386 9.96407 29.1258 10.2039 29.445 10.4162C30.0148 10.7951 33.0642 11.9949 33.4593 11.9955C33.57 11.9957 33.7786 12.0419 33.9226 12.0984ZM19.5097 12.1475C19.5347 12.1655 19.5798 12.1757 19.6323 12.1771C19.6847 12.1788 19.7442 12.1718 19.7987 12.1564C19.9192 12.122 19.8834 12.0968 19.7077 12.0912C19.5486 12.0868 19.4596 12.1115 19.5097 12.1475ZM16.0072 8.45085L16.6861 8.524L15.9175 8.0037C15.4948 7.71754 14.9965 7.41021 14.8108 7.32079C14.625 7.23137 14.3269 7.06881 14.1483 6.95958C13.6811 6.67402 11.4002 5.69483 11.2015 5.69454C11.1178 5.6405 11.0759 5.62835 11.055 5.62228C11.0458 5.61964 11.0408 5.61815 11.0379 5.61487C11.034 5.6106 11.0341 5.60329 11.0341 5.58647C10.8473 5.52488 10.8473 5.52487 10.7658 5.47788C10.51 5.41937 10.5039 5.41799 10.499 5.41498C10.4938 5.41183 10.4898 5.40689 10.2005 5.33246C9.65982 5.06903 7.25998 4.54876 5.5285 4.31928C4.3608 4.16453 2.97168 3.99582 2.66171 3.97153C2.57869 3.96525 2.68039 4.05561 2.88756 4.17278C3.56587 4.55636 4.00728 4.76438 4.54563 4.95384C4.75302 5.02679 4.95653 5.11411 4.99788 5.14811C5.18105 5.29848 10.1503 7.09394 10.3904 7.09634C10.4953 7.09785 10.6988 7.14571 10.8429 7.20343C11.1714 7.33521 13.6169 7.94937 14.4231 8.10258C14.755 8.16568 15.0944 8.25316 15.1773 8.29731C15.2602 8.34141 15.6337 8.41059 16.0072 8.45085ZM26.0321 8.12936C26.2286 8.27062 26.3468 8.34556 26.3845 8.34833C26.4474 8.35323 26.287 8.15892 25.8948 7.74024C25.6051 7.43095 25.3682 7.12029 25.3683 7.05017C25.3685 6.98003 25.318 6.90639 25.2557 6.88652C25.0967 6.83553 24.4659 5.88564 24.4664 5.69757C24.4667 5.61197 24.4088 5.49557 24.338 5.43903C23.947 5.12694 23.1166 2.51271 23.119 1.60164C23.1201 1.19191 23.0642 0.97097 22.9698 1.01254C22.8833 1.05065 22.817 1.6053 22.8151 2.30864C22.8133 2.98495 22.948 3.59908 22.948 3.59908C22.948 3.59908 23.1302 3.95122 23.187 4.30799C23.2439 4.66475 23.4086 4.95699 23.4265 4.95701C23.4345 4.95704 23.4569 4.99446 23.4817 5.03602C23.5128 5.0879 23.5477 5.14623 23.5632 5.14626C23.5632 5.14626 25.1542 7.49837 26.0321 8.12936ZM27.4151 8.20462C27.3843 8.20457 27.1342 7.94874 26.8593 7.63633C26.6441 7.39172 26.3751 7.095 26.2302 6.95918C26.263 7.02445 26.2209 6.98493 26.1421 6.88787C26.1593 6.89625 26.19 6.92153 26.2302 6.95918C26.2076 6.91439 26.1498 6.82028 26.0445 6.66158C25.8981 6.50462 25.8089 6.36858 25.8068 6.36506C25.7447 6.26051 25.7051 6.20439 25.6809 6.17788C25.6843 6.19036 25.6818 6.1949 25.6786 6.20083C25.6754 6.20649 25.6716 6.21341 25.6716 6.22975C25.6718 6.28547 25.6078 6.09828 25.6809 6.17788C25.6725 6.14802 25.6296 6.07275 25.4801 5.82444C25.3106 5.58426 25.0233 4.92534 24.3967 3.33772C24.291 3.07019 24.1598 2.62025 24.1049 2.33785C24.0501 2.05555 24.0341 1.82456 24.0694 1.82467C24.161 1.82477 25.1367 3.41301 25.0766 3.31605C25.1033 3.35908 25.1316 3.39374 25.1573 3.42515C25.1686 3.43887 25.1793 3.45196 25.1892 3.46494C25.2646 3.56368 25.8599 4.46912 26.2793 5.44759C26.4577 5.86385 26.6571 6.27878 26.7223 6.36997C26.7876 6.46116 26.8906 6.70467 26.9517 6.9108C27.0129 7.11694 27.1132 7.3343 27.1748 7.39387C27.2988 7.51377 27.5037 8.20476 27.4151 8.20462ZM4.39717 7.74918C3.84765 8.03881 3.79304 8.15173 4.37672 8.15872C4.57139 8.16105 4.83681 8.15185 5.17862 8.13334C5.86356 8.09621 7.09029 8.06658 7.90457 8.06747C9.4458 8.06846 9.74637 7.93445 8.50196 7.79989C8.10665 7.75716 7.71509 7.68215 7.63185 7.63299C7.13771 7.34119 5.0275 7.417 4.39717 7.74918ZM17.961 6.02689C17.9206 6.02683 17.9243 6.00128 17.9297 5.96595C17.9342 5.93667 17.9396 5.90065 17.9216 5.86686C17.7952 5.62985 18.4049 5.69648 19.4093 6.02909C20.5545 6.40841 21.1396 7.05467 20.6517 7.40251C20.6027 7.43746 20.5286 7.45216 20.4368 7.44978C19.7982 7.43326 18.6746 6.6915 18.2165 6.27135C18.1952 6.26307 17.9608 6.11865 17.961 6.02689ZM3.03657 5.11503C3.03845 5.29844 5.67552 6.42323 5.83604 6.30878C5.92348 6.24646 5.43442 6.02341 4.65651 5.77105C4.42846 5.69707 4.24196 5.59874 4.24208 5.55233C4.2423 5.5059 4.15099 5.46783 4.03933 5.46766C3.92768 5.46749 3.71378 5.37003 3.56377 5.25095C3.28785 5.03176 3.03547 4.96673 3.03657 5.11503ZM2.58389 4.81714C2.58367 4.87653 2.65563 4.92541 2.74363 4.92555C2.83151 4.92568 2.86136 4.87697 2.81029 4.81749C2.7591 4.75794 2.68747 4.70912 2.65088 4.70907C2.61429 4.70902 2.584 4.75773 2.58389 4.81714Z" fill="#C8B4C1"/>
<path fill-rule="evenodd" clip-rule="evenodd" d="M25.6809 6.17788C25.6078 6.09828 25.6718 6.28547 25.6716 6.22975C25.6716 6.21341 25.6754 6.20649 25.6786 6.20083C25.6818 6.1949 25.6843 6.19036 25.6809 6.17788ZM26.1421 6.88787C26.1593 6.89625 26.19 6.92153 26.2302 6.95918C26.263 7.02445 26.2209 6.98493 26.1421 6.88787ZM18.2165 6.27135L18.2088 6.26426C18.2179 6.27055 18.2199 6.27267 18.2165 6.27135Z" fill="#C8B4C1"/>
<path d="M0 19.8493C0 19.271 0.494931 18.8022 1.10546 18.8022H38.691C39.3016 18.8022 39.7965 19.271 39.7965 19.8493C39.7965 20.4276 39.3016 20.8964 38.691 20.8964H1.10546C0.494931 20.8964 0 20.4276 0 19.8493Z" fill="#C8B4C1"/>
<path d="M0 15.6609C0 15.0826 0.494931 14.6138 1.10546 14.6138H38.691C39.3016 14.6138 39.7965 15.0826 39.7965 15.6609C39.7965 16.2392 39.3016 16.708 38.691 16.708H1.10546C0.494931 16.708 0 16.2392 0 15.6609Z" fill="#C8B4C1"/>
<path d="M0 24.0377C0 23.4594 0.494931 22.9906 1.10546 22.9906H38.691C39.3016 22.9906 39.7965 23.4594 39.7965 24.0377C39.7965 24.616 39.3016 25.0848 38.691 25.0848H1.10546C0.494931 25.0848 0 24.616 0 24.0377Z" fill="#C8B4C1"/>
<path fill-rule="evenodd" clip-rule="evenodd" d="M40 26.3803L5.10706 26.1379C4.55361 26.3377 4.18481 26.3795 2.99344 26.3811C0.0077271 26.3837 0.807527 27.8124 4.11558 28.3855C4.36182 28.4281 4.63373 28.5023 4.71989 28.5506C4.80604 28.5988 5.14547 28.6867 5.47409 28.7457C6.18131 28.8725 7.2408 29.1408 7.90389 29.3613C8.16524 29.4482 8.41871 29.5196 8.4672 29.5197C8.69474 29.52 10.2074 30.2482 10.7465 30.6171C11.6281 31.2201 12.3917 32.3821 12.9055 33.9021C13.1386 34.5916 13.8087 35.8916 14.3648 36.7325C14.647 37.1591 14.8777 37.5604 14.8775 37.6245C14.8774 37.6886 14.9885 37.8532 15.0069 37.9061C15.1427 38.2966 16.5219 39.781 16.8088 39.9014C17.1208 40.0323 17.0487 40.0311 17.5036 39.9082C17.7166 39.8506 17.8723 39.583 17.8723 39.583C18.2642 38.9887 18.5807 35.6559 18.0432 34.8875C18.0432 34.8556 17.8856 34.5654 17.9043 34.6233C17.8856 34.5654 16.9123 32.9307 16.5655 32.5965C16.4337 32.4695 16.2241 32.2565 16.0999 32.1236C15.4723 31.4517 13.7917 30.1995 12.786 29.6545C12.4959 29.4973 12.097 29.2578 11.8996 29.1225C11.3253 28.7286 9.11675 27.7052 8.66399 27.6231C8.43617 27.5818 8.28249 27.5245 8.32255 27.4959C8.39369 27.4451 9.69962 27.7139 10.3001 27.9029C10.466 27.9551 10.9412 28.1012 11.356 28.2276C13.3264 28.8278 14.2521 29.2516 16.1792 30.4357C16.676 30.741 17.1697 31.0398 17.2764 31.0994C18.1308 31.5767 18.3645 31.8315 18.3633 32.2846C18.36 33.5422 19.7861 34.4848 22.0428 34.7171C23.5031 34.8674 24.1956 34.5459 23.4148 34.08C23.2874 33.9179 23.1889 33.8857 23.1891 33.8129C23.1893 33.7401 22.8882 33.4309 22.8882 33.4309C22.8134 33.2663 22.5874 33.1454 22.5875 33.1017C22.1322 32.7853 21.19 32.038 20.3182 31.7061C19.784 31.5028 19.3133 31.3055 19.2719 31.2676C19.2305 31.2298 18.9249 31.0814 18.5932 30.9379C18.2616 30.7944 17.9227 30.6234 17.8399 30.558C17.7571 30.4925 17.3657 30.2714 16.9703 30.0662C16.5749 29.8611 16.0171 29.539 15.7309 29.3509C15.4447 29.1628 15.1238 28.9868 15.0179 28.9595C14.9121 28.9323 14.8669 28.878 14.9173 28.839C15.0174 28.7613 17.7537 29.4829 17.9855 29.6481C18.0642 29.7042 18.2341 29.7518 18.3627 29.754C18.4914 29.7562 18.868 29.8524 19.1997 29.9678C19.5315 30.0831 19.9133 30.1793 20.0484 30.1815C20.1835 30.1838 20.3787 30.2585 20.4818 30.3478C20.5849 30.4371 20.7385 30.5102 20.8235 30.5104C21.0389 30.5107 22.0646 31.1282 23.2924 31.9966C24.8596 33.105 26.2245 33.8436 27.8665 34.4725C28.3226 34.6472 28.73 34.8229 28.7721 34.8628C28.8144 34.9027 29.035 34.9693 29.2623 35.0106C29.4896 35.0518 29.5605 35.1059 29.6756 35.173C29.7908 35.2401 29.8961 35.2952 30.1657 35.3368C30.4354 35.3786 30.3712 35.4207 30.8127 35.5027C31.3396 35.6006 32.5515 35.9034 34.578 36.197C35.8063 36.3749 39.3142 36.6015 39.5204 36.5161C40.2155 36.2282 38.1748 34.4207 35.9811 33.3812L35.2647 33.0416L35.7598 32.9761C37.2327 32.7806 38.086 31.6484 36.9881 31.3464C36.2462 31.1423 36.2772 31.1421 31.1935 31.381C29.9338 31.4402 28.6516 31.4442 28.175 31.3907C26.5419 31.2076 25.3799 31.0414 25.0833 30.9481C24.9174 30.896 24.5464 30.8197 24.2587 30.7785C23.971 30.7373 23.6315 30.6629 23.5044 30.6132C23.3773 30.5635 22.879 30.3936 22.3968 30.2359C21.9146 30.0781 21.5443 29.9319 21.5738 29.9108C21.6256 29.8739 22.7672 29.7489 24.8848 29.5483C25.4376 29.4959 26.2044 29.3769 26.5887 29.2841C26.973 29.1914 27.3843 29.1159 27.5031 29.1161C27.7013 29.1164 28.0731 29.0162 29.3154 28.6284C29.5646 28.5506 30.0406 28.4064 30.3729 28.308C32.3421 27.7246 32.7047 27.482 31.8182 27.3412C31.4141 27.277 30.1185 27.6214 28.7324 28.1613C27.3145 28.7135 21.6935 29.5206 20.219 29.3837C19.5659 29.3231 18.0203 28.9932 18.1052 28.9327C18.1308 28.9145 18.762 28.8248 19.5078 28.7332C21.969 28.4312 22.6738 28.3272 22.8267 28.2436C22.9098 28.1982 23.2834 28.1261 23.657 28.0835C24.0307 28.0409 24.4046 27.9691 24.4878 27.9238C24.5709 27.8784 25.1145 27.8085 25.6957 27.7684C26.2768 27.7283 26.956 27.6541 27.2051 27.6034C29.4342 27.1497 31.8727 27.054 39.9981 27.1016L40 26.3803ZM28.0754 26.6479C27.5462 26.6437 27.1361 26.641 26.8145 26.6433C25.8496 26.6496 25.68 26.696 25.4714 26.8443L25.1688 27.0599L25.735 27.0553C26.0463 27.0524 26.8443 27.0011 27.5085 26.9414C30.4571 26.6765 30.4733 26.6681 28.0754 26.6479ZM23.5094 26.7513C23.8644 26.682 21.2621 26.6446 15.5858 26.6367C10.9371 26.6302 7.37162 26.664 7.66203 26.7114C7.95245 26.7588 8.69924 26.873 9.32158 26.9656C11.4849 27.2875 11.9073 27.3607 12.0847 27.4424C13.0428 27.8841 15.8338 27.9833 17.9229 27.6501C18.5457 27.5508 19.4969 27.4024 20.0367 27.3205C21.5444 27.0916 22.9259 26.8652 23.5094 26.7513ZM6.4868 27.9016C5.98015 27.7027 3.03633 27.1369 2.52905 27.1408C2.08537 27.1442 3.38163 27.5443 4.79136 27.8388C5.57953 28.0035 6.29208 28.1742 6.37498 28.2182C6.45788 28.2622 6.7243 28.3329 6.96725 28.3749C7.44275 28.4572 9.34243 29.072 9.46649 29.1838C9.60486 29.3085 11.2688 30.0642 11.4054 30.0644C11.4796 30.0645 11.6259 30.1387 11.7307 30.2294C11.8355 30.3202 11.9623 30.3652 12.0127 30.3292C12.0631 30.2933 11.9785 30.1977 11.8247 30.1168C11.6708 30.0359 11.2836 29.7961 10.9644 29.5838C10.3947 29.2049 7.34523 28.0051 6.95013 28.0045C6.83945 28.0043 6.6308 27.9581 6.4868 27.9016ZM20.8998 27.8525C20.8748 27.8345 20.8297 27.8243 20.7772 27.8229C20.7248 27.8212 20.6652 27.8282 20.6107 27.8436C20.4902 27.878 20.526 27.9032 20.7018 27.9089C20.8609 27.9132 20.9498 27.8885 20.8998 27.8525ZM24.4022 31.5492L23.7233 31.476L24.4919 31.9963C24.9147 32.2825 25.4129 32.5898 25.5987 32.6792C25.7845 32.7686 26.0825 32.9312 26.2612 33.0404C26.7283 33.326 29.0092 34.3052 29.2079 34.3055C29.2916 34.3595 29.3335 34.3717 29.3545 34.3777C29.3635 34.3804 29.3687 34.3819 29.3716 34.3851C29.3754 34.3894 29.3754 34.3967 29.3753 34.4135C29.5621 34.4751 29.5621 34.4751 29.6436 34.5221C29.8994 34.5806 29.9055 34.582 29.9104 34.585C29.9156 34.5882 29.9196 34.5931 30.209 34.6676C30.7496 34.931 33.1494 35.4512 34.881 35.6807C36.0487 35.8355 37.4378 36.0042 37.7477 36.0285C37.8307 36.0347 37.7291 35.9444 37.5219 35.8272C36.8435 35.4436 36.4022 35.2356 35.8637 35.0462C35.6564 34.9732 35.4529 34.8859 35.4115 34.8519C35.2284 34.7015 30.2591 32.9061 30.019 32.9037C29.9141 32.9022 29.7106 32.8543 29.5666 32.7966C29.238 32.6648 26.7925 32.0506 25.9863 31.8974C25.6545 31.8343 25.315 31.7469 25.2321 31.7027C25.1492 31.6586 24.7757 31.5894 24.4022 31.5492ZM14.3773 31.8706C14.1808 31.7294 14.0626 31.6544 14.0249 31.6517C13.962 31.6468 14.1224 31.8411 14.5146 32.2598C14.8043 32.5691 15.0413 32.8797 15.0411 32.9498C15.0409 33.02 15.0915 33.0936 15.1537 33.1135C15.3128 33.1645 15.9435 34.1144 15.943 34.3024C15.9428 34.388 16.0006 34.5044 16.0714 34.561C16.4624 34.8731 17.2929 37.4873 17.2905 38.3984C17.2894 38.8081 17.3453 39.029 17.4397 38.9874C17.5261 38.9494 17.5924 38.3947 17.5943 37.6914C17.5961 37.015 17.4614 36.4009 17.4614 36.4009C17.4614 36.4009 17.2793 36.0488 17.2224 35.692C17.1656 35.3353 17.0008 35.043 16.9829 35.043C16.9749 35.043 16.9525 35.0056 16.9277 34.964C16.8967 34.9121 16.8618 34.8538 16.8463 34.8537C16.8463 34.8537 15.2552 32.5016 14.3773 31.8706ZM12.9943 31.7954C13.0251 31.7954 13.2752 32.0513 13.5501 32.3637C13.7654 32.6083 14.0343 32.905 14.1793 33.0408C14.1464 32.9756 14.1885 33.0151 14.2674 33.1121C14.2501 33.1038 14.2194 33.0785 14.1793 33.0408C14.2018 33.0856 14.2596 33.1797 14.365 33.3384C14.5113 33.4954 14.6006 33.6314 14.6026 33.6349C14.6648 33.7395 14.7043 33.7956 14.7286 33.8221C14.7251 33.8097 14.7276 33.8051 14.7309 33.7992C14.734 33.7935 14.7379 33.7866 14.7378 33.7703C14.7376 33.7145 14.8016 33.9017 14.7286 33.8221C14.737 33.852 14.7798 33.9273 14.9293 34.1756C15.0989 34.4157 15.3861 35.0747 16.0128 36.6623C16.1184 36.9299 16.2497 37.3798 16.3045 37.6621C16.3593 37.9445 16.3753 38.1754 16.3401 38.1754C16.2484 38.1752 15.2728 36.587 15.3328 36.684C15.3062 36.6409 15.2778 36.6063 15.2521 36.5748C15.2408 36.5611 15.2301 36.548 15.2202 36.5351C15.1449 36.4364 14.5496 35.5309 14.1302 34.5524C13.9518 34.1362 13.7523 33.7212 13.6871 33.63C13.6219 33.5389 13.5188 33.2953 13.4577 33.0892C13.3966 32.8831 13.2962 32.6657 13.2346 32.6061C13.1106 32.4862 12.9057 31.7953 12.9943 31.7954ZM36.0123 32.2508C36.5618 31.9612 36.6164 31.8483 36.0327 31.8413C35.8381 31.839 35.5727 31.8482 35.2308 31.8667C34.5459 31.9038 33.3192 31.9334 32.5049 31.9325C30.9637 31.9315 30.6631 32.0656 31.9075 32.2001C32.3027 32.2429 32.6944 32.3178 32.7776 32.367C33.2718 32.6588 35.382 32.583 36.0123 32.2508ZM22.4484 33.9731C22.4889 33.9732 22.4851 33.9987 22.4797 34.0341C22.4753 34.0633 22.4699 34.0994 22.4879 34.1331C22.6142 34.3702 22.0045 34.3035 21.0002 33.9709C19.8548 33.5916 19.2699 32.9453 19.7578 32.5975C19.8067 32.5626 19.8808 32.5478 19.9726 32.5502C20.6112 32.5668 21.7349 33.3085 22.1929 33.7287C22.2143 33.7369 22.4486 33.8814 22.4484 33.9731ZM37.3728 34.885C37.371 34.7016 34.7339 33.5768 34.5734 33.6912C34.486 33.7535 34.975 33.9766 35.7529 34.229C35.981 34.3029 36.1674 34.4013 36.1673 34.4477C36.1672 34.4941 36.2585 34.5322 36.3701 34.5323C36.4818 34.5325 36.6957 34.63 36.8456 34.7491C37.1216 34.9682 37.374 35.0333 37.3728 34.885ZM37.8256 35.1829C37.8257 35.1235 37.7538 35.0746 37.6658 35.0745C37.5779 35.0743 37.5481 35.123 37.5992 35.1825C37.6503 35.2421 37.722 35.2909 37.7585 35.2909C37.7951 35.291 37.8254 35.2423 37.8256 35.1829Z" fill="#C8B4C1"/>
<path fill-rule="evenodd" clip-rule="evenodd" d="M14.7286 33.8221C14.8016 33.9017 14.7376 33.7145 14.7378 33.7703C14.7379 33.7866 14.734 33.7935 14.7309 33.7992C14.7276 33.8051 14.7251 33.8097 14.7286 33.8221ZM14.2674 33.1121C14.2501 33.1038 14.2194 33.0785 14.1793 33.0408C14.1464 32.9756 14.1885 33.0151 14.2674 33.1121ZM22.1929 33.7287L22.2006 33.7357C22.1915 33.7295 22.1895 33.7273 22.1929 33.7287Z" fill="#C8B4C1"/>
</svg>
