<svg width="48" height="48" viewBox="0 0 48 48" fill="none" xmlns="http://www.w3.org/2000/svg">
<g filter="url(#filter0_d_24_17)">
<path fill-rule="evenodd" clip-rule="evenodd" d="M4.40945 13.6197L39.3024 13.8621C39.8558 13.6623 40.2246 13.6205 41.416 13.6189C44.4017 13.6163 43.6019 12.1876 40.2939 11.6145C40.0476 11.5719 39.7757 11.4977 39.6895 11.4494C39.6034 11.4012 39.264 11.3133 38.9353 11.2543C38.2281 11.1275 37.1686 10.8592 36.5055 10.6387C36.2442 10.5518 35.9907 10.4804 35.9422 10.4804C35.7147 10.48 34.202 9.75177 33.6629 9.38295C32.7814 8.77992 32.0177 7.61786 31.5039 6.09788C31.2709 5.40839 30.6007 4.10849 30.0446 3.26757C29.7625 2.84087 29.5318 2.43963 29.5319 2.37554C29.5321 2.31136 29.4209 2.14675 29.4025 2.09388C29.2668 1.70341 27.8875 0.219051 27.6006 0.0986349C27.2886 -0.0323569 27.3606 -0.0311006 26.9059 0.0918285C26.6928 0.149419 26.5372 0.416952 26.5372 0.416952C26.1453 1.01128 25.8287 4.3441 26.3663 5.11255C26.3662 5.14444 26.5238 5.43456 26.5051 5.37669C26.5238 5.43456 27.4972 7.06931 27.8439 7.40347C27.9757 7.5305 28.1853 7.74348 28.3095 7.8764C28.9371 8.54835 30.6178 9.80046 31.6234 10.3455C31.9135 10.5027 32.3124 10.7422 32.5098 10.8775C33.0842 11.2715 35.2927 12.2948 35.7454 12.3769C35.9733 12.4182 36.1269 12.4755 36.0869 12.5041C36.0157 12.5549 34.7098 12.2861 34.1093 12.0971C33.9434 12.0449 33.4682 11.8988 33.0535 11.7724C31.0831 11.1722 30.1573 10.7484 28.2302 9.56427C27.7334 9.25898 27.2397 8.96021 27.133 8.90064C26.2786 8.42333 26.0449 8.16848 26.0461 7.71544C26.0495 6.45782 24.6234 5.51517 22.3666 5.28288C20.9063 5.13258 20.2137 5.45415 20.9946 5.92001C21.1221 6.08208 21.2205 6.11433 21.2203 6.1871C21.2202 6.25987 21.5213 6.56911 21.5213 6.56911C21.596 6.73373 21.8221 6.85458 21.822 6.89828C22.2772 7.21475 23.2195 7.96204 24.0913 8.29391C24.6254 8.49723 25.0961 8.69451 25.1376 8.73237C25.1789 8.77023 25.4846 8.91865 25.8162 9.06211C26.1478 9.20557 26.4867 9.37659 26.5695 9.44202C26.6524 9.50751 27.0437 9.72861 27.4391 9.93378C27.8346 10.1389 28.3923 10.461 28.6785 10.6491C28.9647 10.8372 29.2857 11.0132 29.3916 11.0405C29.4974 11.0677 29.5425 11.122 29.4922 11.161C29.392 11.2387 26.6558 10.5171 26.424 10.3519C26.3453 10.2958 26.1754 10.2482 26.0467 10.246C25.918 10.2438 25.5414 10.1476 25.2098 10.0322C24.878 9.91692 24.4962 9.8207 24.3611 9.81846C24.226 9.81622 24.0308 9.74153 23.9276 9.65223C23.8245 9.56293 23.671 9.48976 23.5859 9.48963C23.3705 9.48931 22.3448 8.87185 21.117 8.00338C19.5499 6.89496 18.1849 6.15637 16.543 5.52746C16.0868 5.35276 15.6795 5.17706 15.6373 5.13717C15.595 5.09727 15.3745 5.03066 15.1471 4.9894C14.9198 4.94821 14.849 4.89413 14.7338 4.82704C14.6187 4.75995 14.5133 4.70483 14.2437 4.66316C13.974 4.62143 14.0382 4.57929 13.5968 4.49731C13.0698 4.39946 11.8579 4.09666 9.8315 3.80305C8.60312 3.62504 5.09528 3.39856 4.889 3.4839C4.19389 3.77185 6.23467 5.57931 8.42835 6.61885L9.14479 6.95844L8.64966 7.02388C7.17675 7.21938 6.32344 8.35156 7.42139 8.65362C8.16326 8.85773 8.13219 8.85794 13.216 8.61902C14.4756 8.55977 15.7579 8.55583 16.2344 8.60926C17.8675 8.79237 19.0296 8.95862 19.3262 9.05188C19.492 9.10403 19.8631 9.1803 20.1507 9.22151C20.4385 9.26266 20.778 9.33706 20.9051 9.38684C21.0321 9.43655 21.5305 9.6064 22.0127 9.76414C22.4949 9.92186 22.8652 10.0681 22.8357 10.0892C22.7838 10.1261 21.6422 10.2511 19.5247 10.4517C18.9718 10.5041 18.205 10.6231 17.8208 10.7159C17.4364 10.8086 17.0252 10.8841 16.9063 10.8839C16.7081 10.8836 16.3362 10.9838 15.094 11.3716C14.8448 11.4494 14.3689 11.5936 14.0366 11.692C12.0674 12.2754 11.7047 12.518 12.5913 12.6588C12.9953 12.723 14.2909 12.3786 15.6771 11.8387C17.0949 11.2865 22.7158 10.4794 24.1905 10.6163C24.8435 10.677 26.3892 11.0068 26.3043 11.0673C26.2786 11.0855 25.6474 11.1753 24.9017 11.2668C22.4404 11.5688 21.7356 11.6728 21.5827 11.7564C21.4996 11.8018 21.1261 11.8739 20.7524 11.9165C20.3787 11.9591 20.0048 12.0309 19.9217 12.0762C19.8386 12.1216 19.295 12.1915 18.7138 12.2316C18.1326 12.2717 17.4534 12.3459 17.2042 12.3966C14.9752 12.8503 12.5367 12.946 4.41133 12.8984L4.40945 13.6197ZM16.334 13.3521C16.8632 13.3563 17.2733 13.359 17.5949 13.3567C18.5599 13.3504 18.7294 13.304 18.938 13.1557L19.2406 12.9401L18.6744 12.9447C18.3631 12.9476 17.5652 12.9989 16.9009 13.0586C13.9523 13.3235 13.9362 13.3319 16.334 13.3521ZM20.9 13.2487C20.5451 13.318 23.1473 13.3554 28.8236 13.3633C33.4723 13.3698 37.0378 13.336 36.7474 13.2886C36.457 13.2412 35.7102 13.127 35.0879 13.0344C32.9245 12.7125 32.5021 12.6393 32.3247 12.5576C31.3666 12.1159 28.5757 12.0167 26.4866 12.3499C25.8637 12.4492 24.9125 12.5976 24.3727 12.6795C22.865 12.9084 21.4835 13.1348 20.9 13.2487ZM37.9226 12.0984C38.4293 12.2973 41.3731 12.8631 41.8804 12.8592C42.3241 12.8558 41.0278 12.4557 39.6181 12.1612C38.8299 11.9965 38.1173 11.8258 38.0344 11.7818C37.9516 11.7378 37.6851 11.6671 37.4422 11.6251C36.9667 11.5428 35.067 10.928 34.9429 10.8162C34.8046 10.6915 33.1406 9.93584 33.004 9.93563C32.9299 9.93552 32.7835 9.86134 32.6788 9.77061C32.574 9.67984 32.4471 9.6348 32.3968 9.67076C32.3464 9.70672 32.4309 9.80229 32.5847 9.88318C32.7386 9.96407 33.1258 10.2039 33.445 10.4162C34.0148 10.7951 37.0642 11.9949 37.4593 11.9955C37.57 11.9957 37.7786 12.0419 37.9226 12.0984ZM23.5097 12.1475C23.5347 12.1655 23.5798 12.1757 23.6323 12.1771C23.6847 12.1788 23.7442 12.1718 23.7987 12.1564C23.9192 12.122 23.8834 12.0968 23.7077 12.0912C23.5486 12.0868 23.4596 12.1115 23.5097 12.1475ZM20.0072 8.45085L20.6861 8.524L19.9175 8.0037C19.4948 7.71754 18.9965 7.41021 18.8108 7.32079C18.625 7.23137 18.3269 7.06881 18.1483 6.95958C17.6811 6.67402 15.4002 5.69483 15.2015 5.69454C15.1178 5.6405 15.0759 5.62835 15.055 5.62228C15.0458 5.61964 15.0408 5.61815 15.0379 5.61487C15.034 5.6106 15.0341 5.60329 15.0341 5.58647C14.8473 5.52488 14.8473 5.52487 14.7658 5.47788C14.51 5.41937 14.5039 5.41799 14.499 5.41498C14.4938 5.41183 14.4898 5.40689 14.2005 5.33246C13.6598 5.06903 11.26 4.54876 9.5285 4.31928C8.3608 4.16453 6.97168 3.99582 6.66171 3.97153C6.57869 3.96525 6.68039 4.05561 6.88756 4.17278C7.56587 4.55636 8.00728 4.76438 8.54563 4.95384C8.75302 5.02679 8.95653 5.11411 8.99788 5.14811C9.18105 5.29848 14.1503 7.09394 14.3904 7.09634C14.4953 7.09785 14.6988 7.14571 14.8429 7.20343C15.1714 7.33521 17.6169 7.94937 18.4231 8.10258C18.755 8.16568 19.0944 8.25316 19.1773 8.29731C19.2602 8.34141 19.6337 8.41059 20.0072 8.45085ZM30.0321 8.12936C30.2286 8.27062 30.3468 8.34556 30.3845 8.34833C30.4474 8.35323 30.287 8.15892 29.8948 7.74024C29.6051 7.43095 29.3682 7.12029 29.3683 7.05017C29.3685 6.98003 29.318 6.90639 29.2557 6.88652C29.0967 6.83553 28.4659 5.88564 28.4664 5.69757C28.4667 5.61197 28.4088 5.49557 28.338 5.43903C27.947 5.12694 27.1166 2.51271 27.119 1.60164C27.1201 1.19191 27.0642 0.97097 26.9698 1.01254C26.8833 1.05065 26.817 1.6053 26.8151 2.30864C26.8133 2.98495 26.948 3.59908 26.948 3.59908C26.948 3.59908 27.1302 3.95122 27.187 4.30799C27.2439 4.66475 27.4086 4.95699 27.4265 4.95701C27.4345 4.95704 27.4569 4.99446 27.4817 5.03602C27.5128 5.0879 27.5477 5.14623 27.5632 5.14626C27.5632 5.14626 29.1542 7.49837 30.0321 8.12936ZM31.4151 8.20462C31.3843 8.20457 31.1342 7.94874 30.8593 7.63633C30.6441 7.39172 30.3751 7.095 30.2302 6.95918C30.263 7.02445 30.2209 6.98493 30.1421 6.88787C30.1593 6.89625 30.19 6.92153 30.2302 6.95918C30.2076 6.91439 30.1498 6.82028 30.0445 6.66158C29.8981 6.50462 29.8089 6.36858 29.8068 6.36506C29.7447 6.26051 29.7051 6.20439 29.6809 6.17788C29.6843 6.19036 29.6818 6.1949 29.6786 6.20083C29.6754 6.20649 29.6716 6.21341 29.6716 6.22975C29.6718 6.28547 29.6078 6.09828 29.6809 6.17788C29.6725 6.14802 29.6296 6.07275 29.4801 5.82444C29.3106 5.58426 29.0233 4.92534 28.3967 3.33772C28.291 3.07019 28.1598 2.62025 28.1049 2.33785C28.0501 2.05555 28.0341 1.82456 28.0694 1.82467C28.161 1.82477 29.1367 3.41301 29.0766 3.31605C29.1033 3.35908 29.1316 3.39374 29.1573 3.42515C29.1686 3.43887 29.1793 3.45196 29.1892 3.46494C29.2646 3.56368 29.8599 4.46912 30.2793 5.44759C30.4577 5.86385 30.6571 6.27878 30.7223 6.36997C30.7876 6.46116 30.8906 6.70467 30.9517 6.9108C31.0129 7.11694 31.1132 7.3343 31.1748 7.39387C31.2988 7.51377 31.5037 8.20476 31.4151 8.20462ZM8.39717 7.74918C7.84765 8.03881 7.79304 8.15173 8.37672 8.15872C8.57139 8.16105 8.83681 8.15185 9.17862 8.13334C9.86356 8.09621 11.0903 8.06658 11.9046 8.06747C13.4458 8.06846 13.7464 7.93445 12.502 7.79989C12.1066 7.75716 11.7151 7.68215 11.6318 7.63299C11.1377 7.34119 9.0275 7.417 8.39717 7.74918ZM21.961 6.02689C21.9206 6.02683 21.9243 6.00128 21.9297 5.96595C21.9342 5.93667 21.9396 5.90065 21.9216 5.86686C21.7952 5.62985 22.4049 5.69648 23.4093 6.02909C24.5545 6.40841 25.1396 7.05467 24.6517 7.40251C24.6027 7.43746 24.5286 7.45216 24.4368 7.44978C23.7982 7.43326 22.6746 6.6915 22.2165 6.27135C22.1952 6.26307 21.9608 6.11865 21.961 6.02689ZM7.03657 5.11503C7.03845 5.29844 9.67552 6.42323 9.83604 6.30878C9.92348 6.24646 9.43442 6.02341 8.65651 5.77105C8.42846 5.69707 8.24196 5.59874 8.24208 5.55233C8.2423 5.5059 8.15099 5.46783 8.03933 5.46766C7.92768 5.46749 7.71378 5.37003 7.56377 5.25095C7.28785 5.03176 7.03547 4.96673 7.03657 5.11503ZM6.58389 4.81714C6.58367 4.87653 6.65563 4.92541 6.74363 4.92555C6.83151 4.92568 6.86136 4.87697 6.81029 4.81749C6.7591 4.75794 6.68747 4.70912 6.65088 4.70907C6.61429 4.70902 6.584 4.75773 6.58389 4.81714Z" fill="#C8B4C1" fill-opacity="0.59"/>
<path fill-rule="evenodd" clip-rule="evenodd" d="M29.6809 6.17788C29.6078 6.09828 29.6718 6.28547 29.6716 6.22975C29.6716 6.21341 29.6754 6.20649 29.6786 6.20083C29.6818 6.1949 29.6843 6.19036 29.6809 6.17788ZM30.1421 6.88787C30.1593 6.89625 30.19 6.92153 30.2302 6.95918C30.263 7.02445 30.2209 6.98493 30.1421 6.88787ZM22.2165 6.27135L22.2088 6.26426C22.2179 6.27055 22.2199 6.27267 22.2165 6.27135Z" fill="#C8B4C1"/>
<path d="M4 19.8493C4 19.271 4.49493 18.8022 5.10546 18.8022H42.691C43.3016 18.8022 43.7965 19.271 43.7965 19.8493C43.7965 20.4276 43.3016 20.8964 42.691 20.8964H5.10546C4.49493 20.8964 4 20.4276 4 19.8493Z" fill="#C8B4C1"/>
<path d="M4 15.6609C4 15.0826 4.49493 14.6138 5.10546 14.6138H42.691C43.3016 14.6138 43.7965 15.0826 43.7965 15.6609C43.7965 16.2392 43.3016 16.708 42.691 16.708H5.10546C4.49493 16.708 4 16.2392 4 15.6609Z" fill="#C8B4C1"/>
<path d="M4 24.0377C4 23.4594 4.49493 22.9906 5.10546 22.9906H42.691C43.3016 22.9906 43.7965 23.4594 43.7965 24.0377C43.7965 24.616 43.3016 25.0848 42.691 25.0848H5.10546C4.49493 25.0848 4 24.616 4 24.0377Z" fill="#C8B4C1"/>
<path fill-rule="evenodd" clip-rule="evenodd" d="M44 26.3803L9.10706 26.1379C8.55361 26.3377 8.18481 26.3795 6.99344 26.3811C4.00773 26.3837 4.80753 27.8124 8.11558 28.3855C8.36182 28.4281 8.63373 28.5023 8.71989 28.5506C8.80604 28.5988 9.14547 28.6867 9.47409 28.7457C10.1813 28.8725 11.2408 29.1408 11.9039 29.3613C12.1652 29.4482 12.4187 29.5196 12.4672 29.5197C12.6947 29.52 14.2074 30.2482 14.7465 30.6171C15.6281 31.2201 16.3917 32.3821 16.9055 33.9021C17.1386 34.5916 17.8087 35.8916 18.3648 36.7325C18.647 37.1591 18.8777 37.5604 18.8775 37.6245C18.8774 37.6886 18.9885 37.8532 19.0069 37.9061C19.1427 38.2966 20.5219 39.781 20.8088 39.9014C21.1208 40.0323 21.0487 40.0311 21.5036 39.9082C21.7166 39.8506 21.8723 39.583 21.8723 39.583C22.2642 38.9887 22.5807 35.6559 22.0432 34.8875C22.0432 34.8556 21.8856 34.5654 21.9043 34.6233C21.8856 34.5654 20.9123 32.9307 20.5655 32.5965C20.4337 32.4695 20.2241 32.2565 20.0999 32.1236C19.4723 31.4517 17.7917 30.1995 16.786 29.6545C16.4959 29.4973 16.097 29.2578 15.8996 29.1225C15.3253 28.7286 13.1168 27.7052 12.664 27.6231C12.4362 27.5818 12.2825 27.5245 12.3225 27.4959C12.3937 27.4451 13.6996 27.7139 14.3001 27.9029C14.466 27.9551 14.9412 28.1012 15.356 28.2276C17.3264 28.8278 18.2521 29.2516 20.1792 30.4357C20.676 30.741 21.1697 31.0398 21.2764 31.0994C22.1308 31.5767 22.3645 31.8315 22.3633 32.2846C22.36 33.5422 23.7861 34.4848 26.0428 34.7171C27.5031 34.8674 28.1956 34.5459 27.4148 34.08C27.2874 33.9179 27.1889 33.8857 27.1891 33.8129C27.1893 33.7401 26.8882 33.4309 26.8882 33.4309C26.8134 33.2663 26.5874 33.1454 26.5875 33.1017C26.1322 32.7853 25.19 32.038 24.3182 31.7061C23.784 31.5028 23.3133 31.3055 23.2719 31.2676C23.2305 31.2298 22.9249 31.0814 22.5932 30.9379C22.2616 30.7944 21.9227 30.6234 21.8399 30.558C21.7571 30.4925 21.3657 30.2714 20.9703 30.0662C20.5749 29.8611 20.0171 29.539 19.7309 29.3509C19.4447 29.1628 19.1238 28.9868 19.0179 28.9595C18.9121 28.9323 18.8669 28.878 18.9173 28.839C19.0174 28.7613 21.7537 29.4829 21.9855 29.6481C22.0642 29.7042 22.2341 29.7518 22.3627 29.754C22.4914 29.7562 22.868 29.8524 23.1997 29.9678C23.5315 30.0831 23.9133 30.1793 24.0484 30.1815C24.1835 30.1838 24.3787 30.2585 24.4818 30.3478C24.5849 30.4371 24.7385 30.5102 24.8235 30.5104C25.0389 30.5107 26.0646 31.1282 27.2924 31.9966C28.8596 33.105 30.2245 33.8436 31.8665 34.4725C32.3226 34.6472 32.73 34.8229 32.7721 34.8628C32.8144 34.9027 33.035 34.9693 33.2623 35.0106C33.4896 35.0518 33.5605 35.1059 33.6756 35.173C33.7908 35.2401 33.8961 35.2952 34.1657 35.3368C34.4354 35.3786 34.3712 35.4207 34.8127 35.5027C35.3396 35.6006 36.5515 35.9034 38.578 36.197C39.8063 36.3749 43.3142 36.6015 43.5204 36.5161C44.2155 36.2282 42.1748 34.4207 39.9811 33.3812L39.2647 33.0416L39.7598 32.9761C41.2327 32.7806 42.086 31.6484 40.9881 31.3464C40.2462 31.1423 40.2772 31.1421 35.1935 31.381C33.9338 31.4402 32.6516 31.4442 32.175 31.3907C30.5419 31.2076 29.3799 31.0414 29.0833 30.9481C28.9174 30.896 28.5464 30.8197 28.2587 30.7785C27.971 30.7373 27.6315 30.6629 27.5044 30.6132C27.3773 30.5635 26.879 30.3936 26.3968 30.2359C25.9146 30.0781 25.5443 29.9319 25.5738 29.9108C25.6256 29.8739 26.7672 29.7489 28.8848 29.5483C29.4376 29.4959 30.2044 29.3769 30.5887 29.2841C30.973 29.1914 31.3843 29.1159 31.5031 29.1161C31.7013 29.1164 32.0731 29.0162 33.3154 28.6284C33.5646 28.5506 34.0406 28.4064 34.3729 28.308C36.3421 27.7246 36.7047 27.482 35.8182 27.3412C35.4141 27.277 34.1185 27.6214 32.7324 28.1613C31.3145 28.7135 25.6935 29.5206 24.219 29.3837C23.5659 29.3231 22.0203 28.9932 22.1052 28.9327C22.1308 28.9145 22.762 28.8248 23.5078 28.7332C25.969 28.4312 26.6738 28.3272 26.8267 28.2436C26.9098 28.1982 27.2834 28.1261 27.657 28.0835C28.0307 28.0409 28.4046 27.9691 28.4878 27.9238C28.5709 27.8784 29.1145 27.8085 29.6957 27.7684C30.2768 27.7283 30.956 27.6541 31.2051 27.6034C33.4342 27.1497 35.8727 27.054 43.9981 27.1016L44 26.3803ZM32.0754 26.6479C31.5462 26.6437 31.1361 26.641 30.8145 26.6433C29.8496 26.6496 29.68 26.696 29.4714 26.8443L29.1688 27.0599L29.735 27.0553C30.0463 27.0524 30.8443 27.0011 31.5085 26.9414C34.4571 26.6765 34.4733 26.6681 32.0754 26.6479ZM27.5094 26.7513C27.8644 26.682 25.2621 26.6446 19.5858 26.6367C14.9371 26.6302 11.3716 26.664 11.662 26.7114C11.9525 26.7588 12.6992 26.873 13.3216 26.9656C15.4849 27.2875 15.9073 27.3607 16.0847 27.4424C17.0428 27.8841 19.8338 27.9833 21.9229 27.6501C22.5457 27.5508 23.4969 27.4024 24.0367 27.3205C25.5444 27.0916 26.9259 26.8652 27.5094 26.7513ZM10.4868 27.9016C9.98015 27.7027 7.03633 27.1369 6.52905 27.1408C6.08537 27.1442 7.38163 27.5443 8.79136 27.8388C9.57953 28.0035 10.2921 28.1742 10.375 28.2182C10.4579 28.2622 10.7243 28.3329 10.9672 28.3749C11.4427 28.4572 13.3424 29.072 13.4665 29.1838C13.6049 29.3085 15.2688 30.0642 15.4054 30.0644C15.4796 30.0645 15.6259 30.1387 15.7307 30.2294C15.8355 30.3202 15.9623 30.3652 16.0127 30.3292C16.0631 30.2933 15.9785 30.1977 15.8247 30.1168C15.6708 30.0359 15.2836 29.7961 14.9644 29.5838C14.3947 29.2049 11.3452 28.0051 10.9501 28.0045C10.8394 28.0043 10.6308 27.9581 10.4868 27.9016ZM24.8998 27.8525C24.8748 27.8345 24.8297 27.8243 24.7772 27.8229C24.7248 27.8212 24.6652 27.8282 24.6107 27.8436C24.4902 27.878 24.526 27.9032 24.7018 27.9089C24.8609 27.9132 24.9498 27.8885 24.8998 27.8525ZM28.4022 31.5492L27.7233 31.476L28.4919 31.9963C28.9147 32.2825 29.4129 32.5898 29.5987 32.6792C29.7845 32.7686 30.0825 32.9312 30.2612 33.0404C30.7283 33.326 33.0092 34.3052 33.2079 34.3055C33.2916 34.3595 33.3335 34.3717 33.3545 34.3777C33.3635 34.3804 33.3687 34.3819 33.3716 34.3851C33.3754 34.3894 33.3754 34.3967 33.3753 34.4135C33.5621 34.4751 33.5621 34.4751 33.6436 34.5221C33.8994 34.5806 33.9055 34.582 33.9104 34.585C33.9156 34.5882 33.9196 34.5931 34.209 34.6676C34.7496 34.931 37.1494 35.4512 38.881 35.6807C40.0487 35.8355 41.4378 36.0042 41.7477 36.0285C41.8307 36.0347 41.7291 35.9444 41.5219 35.8272C40.8435 35.4436 40.4022 35.2356 39.8637 35.0462C39.6564 34.9732 39.4529 34.8859 39.4115 34.8519C39.2284 34.7015 34.2591 32.9061 34.019 32.9037C33.9141 32.9022 33.7106 32.8543 33.5666 32.7966C33.238 32.6648 30.7925 32.0506 29.9863 31.8974C29.6545 31.8343 29.315 31.7469 29.2321 31.7027C29.1492 31.6586 28.7757 31.5894 28.4022 31.5492ZM18.3773 31.8706C18.1808 31.7294 18.0626 31.6544 18.0249 31.6517C17.962 31.6468 18.1224 31.8411 18.5146 32.2598C18.8043 32.5691 19.0413 32.8797 19.0411 32.9498C19.0409 33.02 19.0915 33.0936 19.1537 33.1135C19.3128 33.1645 19.9435 34.1144 19.943 34.3024C19.9428 34.388 20.0006 34.5044 20.0714 34.561C20.4624 34.8731 21.2929 37.4873 21.2905 38.3984C21.2894 38.8081 21.3453 39.029 21.4397 38.9874C21.5261 38.9494 21.5924 38.3947 21.5943 37.6914C21.5961 37.015 21.4614 36.4009 21.4614 36.4009C21.4614 36.4009 21.2793 36.0488 21.2224 35.692C21.1656 35.3353 21.0008 35.043 20.9829 35.043C20.9749 35.043 20.9525 35.0056 20.9277 34.964C20.8967 34.9121 20.8618 34.8538 20.8463 34.8537C20.8463 34.8537 19.2552 32.5016 18.3773 31.8706ZM16.9943 31.7954C17.0251 31.7954 17.2752 32.0513 17.5501 32.3637C17.7654 32.6083 18.0343 32.905 18.1793 33.0408C18.1464 32.9756 18.1885 33.0151 18.2674 33.1121C18.2501 33.1038 18.2194 33.0785 18.1793 33.0408C18.2018 33.0856 18.2596 33.1797 18.365 33.3384C18.5113 33.4954 18.6006 33.6314 18.6026 33.6349C18.6648 33.7395 18.7043 33.7956 18.7286 33.8221C18.7251 33.8097 18.7276 33.8051 18.7309 33.7992C18.734 33.7935 18.7379 33.7866 18.7378 33.7703C18.7376 33.7145 18.8016 33.9017 18.7286 33.8221C18.737 33.852 18.7798 33.9273 18.9293 34.1756C19.0989 34.4157 19.3861 35.0747 20.0128 36.6623C20.1184 36.9299 20.2497 37.3798 20.3045 37.6621C20.3593 37.9445 20.3753 38.1754 20.3401 38.1754C20.2484 38.1752 19.2728 36.587 19.3328 36.684C19.3062 36.6409 19.2778 36.6063 19.2521 36.5748C19.2408 36.5611 19.2301 36.548 19.2202 36.5351C19.1449 36.4364 18.5496 35.5309 18.1302 34.5524C17.9518 34.1362 17.7523 33.7212 17.6871 33.63C17.6219 33.5389 17.5188 33.2953 17.4577 33.0892C17.3966 32.8831 17.2962 32.6657 17.2346 32.6061C17.1106 32.4862 16.9057 31.7953 16.9943 31.7954ZM40.0123 32.2508C40.5618 31.9612 40.6164 31.8483 40.0327 31.8413C39.8381 31.839 39.5727 31.8482 39.2308 31.8667C38.5459 31.9038 37.3192 31.9334 36.5049 31.9325C34.9637 31.9315 34.6631 32.0656 35.9075 32.2001C36.3027 32.2429 36.6944 32.3178 36.7776 32.367C37.2718 32.6588 39.382 32.583 40.0123 32.2508ZM26.4484 33.9731C26.4889 33.9732 26.4851 33.9987 26.4797 34.0341C26.4753 34.0633 26.4699 34.0994 26.4879 34.1331C26.6142 34.3702 26.0045 34.3035 25.0002 33.9709C23.8548 33.5916 23.2699 32.9453 23.7578 32.5975C23.8067 32.5626 23.8808 32.5478 23.9726 32.5502C24.6112 32.5668 25.7349 33.3085 26.1929 33.7287C26.2143 33.7369 26.4486 33.8814 26.4484 33.9731ZM41.3728 34.885C41.371 34.7016 38.7339 33.5768 38.5734 33.6912C38.486 33.7535 38.975 33.9766 39.7529 34.229C39.981 34.3029 40.1674 34.4013 40.1673 34.4477C40.1672 34.4941 40.2585 34.5322 40.3701 34.5323C40.4818 34.5325 40.6957 34.63 40.8456 34.7491C41.1216 34.9682 41.374 35.0333 41.3728 34.885ZM41.8256 35.1829C41.8257 35.1235 41.7538 35.0746 41.6658 35.0745C41.5779 35.0743 41.5481 35.123 41.5992 35.1825C41.6503 35.2421 41.722 35.2909 41.7585 35.2909C41.7951 35.291 41.8254 35.2423 41.8256 35.1829Z" fill="#C8B4C1" fill-opacity="0.59"/>
<path fill-rule="evenodd" clip-rule="evenodd" d="M18.7286 33.8221C18.8016 33.9017 18.7376 33.7145 18.7378 33.7703C18.7379 33.7866 18.734 33.7935 18.7309 33.7992C18.7276 33.8051 18.7251 33.8097 18.7286 33.8221ZM18.2674 33.1121C18.2501 33.1038 18.2194 33.0785 18.1793 33.0408C18.1464 32.9756 18.1885 33.0151 18.2674 33.1121ZM26.1929 33.7287L26.2006 33.7357C26.1915 33.7295 26.1895 33.7273 26.1929 33.7287Z" fill="#C8B4C1"/>
</g>
<defs>
<filter id="filter0_d_24_17" x="0" y="0" width="48" height="48" filterUnits="userSpaceOnUse" color-interpolation-filters="sRGB">
<feFlood flood-opacity="0" result="BackgroundImageFix"/>
<feColorMatrix in="SourceAlpha" type="matrix" values="0 0 0 0 0 0 0 0 0 0 0 0 0 0 0 0 0 0 127 0" result="hardAlpha"/>
<feOffset dy="4"/>
<feGaussianBlur stdDeviation="2"/>
<feComposite in2="hardAlpha" operator="out"/>
<feColorMatrix type="matrix" values="0 0 0 0 0 0 0 0 0 0 0 0 0 0 0 0 0 0 0.25 0"/>
<feBlend mode="normal" in2="BackgroundImageFix" result="effect1_dropShadow_24_17"/>
<feBlend mode="normal" in="SourceGraphic" in2="effect1_dropShadow_24_17" result="shape"/>
</filter>
</defs>
</svg>
